<mxfile host="app.diagrams.net" modified="2024-02-02T09:06:19.634Z" agent="Mozilla/5.0 (Macintosh; Intel Mac OS X 10_15_7) AppleWebKit/537.36 (KHTML, like Gecko) Chrome/121.0.0.0 Safari/537.36" etag="g7N7FhOiPqAp7rdrzNJJ" version="23.1.0" type="device">
  <diagram name="Seite-1" id="RoKe5Pq1nnJEBGw5Jiuo">
    <mxGraphModel dx="1095" dy="588" grid="1" gridSize="10" guides="1" tooltips="1" connect="1" arrows="1" fold="1" page="1" pageScale="1" pageWidth="827" pageHeight="1169" math="0" shadow="0">
      <root>
        <mxCell id="0" />
        <mxCell id="1" parent="0" />
        <mxCell id="b4Q8vLsIhjk_OLkRmcc2-1" value="Movie Database" style="text;html=1;strokeColor=none;fillColor=none;align=center;verticalAlign=middle;whiteSpace=wrap;rounded=0;fontStyle=5;fontSize=30;" parent="1" vertex="1">
          <mxGeometry x="40" y="40" width="310" height="50" as="geometry" />
        </mxCell>
        <mxCell id="b4Q8vLsIhjk_OLkRmcc2-2" value="Features:" style="text;html=1;strokeColor=none;fillColor=none;align=left;verticalAlign=top;whiteSpace=wrap;rounded=0;fontStyle=4;fontSize=16;" parent="1" vertex="1">
          <mxGeometry x="90" y="100" width="160" height="30" as="geometry" />
        </mxCell>
        <mxCell id="b4Q8vLsIhjk_OLkRmcc2-3" value="Homepage:&lt;br&gt;- Suche nach einem Filmtitel&lt;br&gt;- Film als Favorit markieren&lt;br&gt;&lt;br&gt;Detailpage:&lt;br&gt;- Anzeige eines Films + Details&lt;br&gt;- Löschen von Filmen aus der Favoritenliste&lt;br&gt;&lt;br&gt;Favoritespages:&lt;br&gt;- Anzeige aller Favoriten-Filme&lt;br&gt;- Löschen von Filmen aus der Favoritenliste&lt;br&gt;-&amp;nbsp;" style="text;html=1;strokeColor=none;fillColor=none;align=left;verticalAlign=top;whiteSpace=wrap;rounded=0;fontStyle=0;fontSize=16;" parent="1" vertex="1">
          <mxGeometry x="70" y="130" width="350" height="220" as="geometry" />
        </mxCell>
        <mxCell id="b4Q8vLsIhjk_OLkRmcc2-75" value="&lt;b&gt;Frontend:&lt;br style=&quot;font-size: 16px;&quot;&gt;&lt;/b&gt;&lt;u&gt;pages&lt;/u&gt;: &lt;br style=&quot;font-size: 16px;&quot;&gt;&amp;nbsp;- Home.jsx (NavLink: Home, Favorites; Searchbar + Submit)&lt;br&gt;&amp;nbsp;- MovieDetails.jsx&lt;br style=&quot;font-size: 16px;&quot;&gt;&amp;nbsp;- FavoritesList.jsx&lt;br style=&quot;font-size: 16px;&quot;&gt;&lt;br style=&quot;font-size: 16px;&quot;&gt;&lt;u&gt;components&lt;/u&gt;:&lt;br style=&quot;font-size: 16px;&quot;&gt;&amp;nbsp;- MovieList.jsx (alle Filme in der Übersicht)&lt;br&gt;&amp;nbsp;- MovieItem.jsx (für jeden Film in der MovieList und FavoritesList)&lt;br&gt;&amp;nbsp;- Button AddToFavList.jsx&lt;br&gt;&amp;nbsp;- Button RemoveFromFavList.jsx&lt;br&gt;&amp;nbsp;" style="rounded=0;whiteSpace=wrap;html=1;fontFamily=Helvetica;fontSize=16;fontColor=default;align=left;verticalAlign=top;" parent="1" vertex="1">
          <mxGeometry x="70" y="430" width="500" height="250" as="geometry" />
        </mxCell>
        <mxCell id="b4Q8vLsIhjk_OLkRmcc2-78" value="Backend" style="text;html=1;strokeColor=none;fillColor=none;align=left;verticalAlign=middle;whiteSpace=wrap;rounded=0;fontSize=16;fontFamily=Helvetica;fontColor=default;fontStyle=1" parent="1" vertex="1">
          <mxGeometry x="880" y="35" width="110" height="30" as="geometry" />
        </mxCell>
        <mxCell id="b4Q8vLsIhjk_OLkRmcc2-79" value="&lt;span style=&quot;font-weight: normal;&quot;&gt;Endpoints:&lt;/span&gt;" style="text;html=1;strokeColor=none;fillColor=none;align=left;verticalAlign=middle;whiteSpace=wrap;rounded=0;fontSize=16;fontFamily=Helvetica;fontColor=default;fontStyle=5" parent="1" vertex="1">
          <mxGeometry x="880" y="65" width="110" height="30" as="geometry" />
        </mxCell>
        <mxCell id="b4Q8vLsIhjk_OLkRmcc2-101" style="edgeStyle=orthogonalEdgeStyle;shape=connector;rounded=0;orthogonalLoop=1;jettySize=auto;html=1;entryX=0;entryY=0.5;entryDx=0;entryDy=0;labelBackgroundColor=default;strokeColor=default;strokeWidth=2;align=center;verticalAlign=middle;fontFamily=Helvetica;fontSize=11;fontColor=default;endArrow=classic;" parent="1" source="b4Q8vLsIhjk_OLkRmcc2-80" target="b4Q8vLsIhjk_OLkRmcc2-93" edge="1">
          <mxGeometry relative="1" as="geometry" />
        </mxCell>
        <mxCell id="b4Q8vLsIhjk_OLkRmcc2-104" value="&lt;font style=&quot;font-size: 16px;&quot;&gt;req&lt;/font&gt;" style="edgeLabel;html=1;align=center;verticalAlign=middle;resizable=0;points=[];fontSize=11;fontFamily=Helvetica;fontColor=default;" parent="b4Q8vLsIhjk_OLkRmcc2-101" vertex="1" connectable="0">
          <mxGeometry x="0.2532" relative="1" as="geometry">
            <mxPoint x="18" y="-3" as="offset" />
          </mxGeometry>
        </mxCell>
        <mxCell id="b4Q8vLsIhjk_OLkRmcc2-80" value="GET" style="swimlane;whiteSpace=wrap;html=1;fontFamily=Helvetica;fontSize=11;fontColor=#ffffff;fillColor=#008a00;strokeColor=#005700;" parent="1" vertex="1">
          <mxGeometry x="880" y="155" width="200" height="60" as="geometry" />
        </mxCell>
        <mxCell id="b4Q8vLsIhjk_OLkRmcc2-81" value="&lt;span style=&quot;&quot;&gt;gesamte Movielist anzeigen&lt;/span&gt;" style="text;html=1;strokeColor=none;fillColor=none;align=left;verticalAlign=middle;whiteSpace=wrap;rounded=0;fontSize=16;fontFamily=Helvetica;fontColor=default;fontStyle=1" parent="1" vertex="1">
          <mxGeometry x="880" y="115" width="220" height="30" as="geometry" />
        </mxCell>
        <mxCell id="b4Q8vLsIhjk_OLkRmcc2-82" value="&lt;font style=&quot;font-size: 16px;&quot;&gt;/api/movielist&lt;/font&gt;" style="text;html=1;align=center;verticalAlign=middle;resizable=0;points=[];autosize=1;strokeColor=none;fillColor=none;fontSize=11;fontFamily=Helvetica;fontColor=default;" parent="1" vertex="1">
          <mxGeometry x="920" y="183" width="120" height="30" as="geometry" />
        </mxCell>
        <mxCell id="b4Q8vLsIhjk_OLkRmcc2-84" value="b" style="swimlane;whiteSpace=wrap;html=1;fontFamily=Helvetica;fontSize=11;fontColor=#ffffff;fillColor=#008a00;strokeColor=#005700;" parent="1" vertex="1">
          <mxGeometry x="875" y="1740" width="280" height="60" as="geometry" />
        </mxCell>
        <mxCell id="b4Q8vLsIhjk_OLkRmcc2-86" value="&lt;font style=&quot;font-size: 16px;&quot;&gt;/api/movielist?&amp;lt;searchinput&amp;gt;&lt;/font&gt;" style="text;html=1;align=center;verticalAlign=middle;resizable=0;points=[];autosize=1;strokeColor=none;fillColor=none;fontSize=11;fontFamily=Helvetica;fontColor=default;" parent="b4Q8vLsIhjk_OLkRmcc2-84" vertex="1">
          <mxGeometry x="25" y="28" width="230" height="30" as="geometry" />
        </mxCell>
        <mxCell id="b4Q8vLsIhjk_OLkRmcc2-85" value="&lt;span style=&quot;&quot;&gt;Movielist mit Suchergebnissen anzeigen&lt;/span&gt;" style="text;html=1;strokeColor=none;fillColor=none;align=left;verticalAlign=middle;whiteSpace=wrap;rounded=0;fontSize=16;fontFamily=Helvetica;fontColor=default;fontStyle=1" parent="1" vertex="1">
          <mxGeometry x="875" y="1700" width="400" height="30" as="geometry" />
        </mxCell>
        <mxCell id="b4Q8vLsIhjk_OLkRmcc2-109" style="edgeStyle=orthogonalEdgeStyle;shape=connector;rounded=0;orthogonalLoop=1;jettySize=auto;html=1;exitX=1;exitY=0.5;exitDx=0;exitDy=0;entryX=0;entryY=0.5;entryDx=0;entryDy=0;labelBackgroundColor=default;strokeColor=default;strokeWidth=2;align=center;verticalAlign=middle;fontFamily=Helvetica;fontSize=11;fontColor=default;endArrow=classic;" parent="1" source="b4Q8vLsIhjk_OLkRmcc2-87" target="b4Q8vLsIhjk_OLkRmcc2-105" edge="1">
          <mxGeometry relative="1" as="geometry" />
        </mxCell>
        <mxCell id="b4Q8vLsIhjk_OLkRmcc2-113" value="&lt;font style=&quot;font-size: 16px;&quot;&gt;req&lt;/font&gt;" style="edgeLabel;html=1;align=center;verticalAlign=middle;resizable=0;points=[];fontSize=11;fontFamily=Helvetica;fontColor=default;" parent="b4Q8vLsIhjk_OLkRmcc2-109" vertex="1" connectable="0">
          <mxGeometry x="0.2331" y="-1" relative="1" as="geometry">
            <mxPoint y="-4" as="offset" />
          </mxGeometry>
        </mxCell>
        <mxCell id="b4Q8vLsIhjk_OLkRmcc2-87" value="GET" style="swimlane;whiteSpace=wrap;html=1;fontFamily=Helvetica;fontSize=11;fontColor=#ffffff;fillColor=#008a00;strokeColor=#005700;" parent="1" vertex="1">
          <mxGeometry x="880" y="361" width="200" height="60" as="geometry" />
        </mxCell>
        <mxCell id="b4Q8vLsIhjk_OLkRmcc2-88" value="&lt;span style=&quot;&quot;&gt;Movie Details anzeigen&lt;/span&gt;" style="text;html=1;strokeColor=none;fillColor=none;align=left;verticalAlign=middle;whiteSpace=wrap;rounded=0;fontSize=16;fontFamily=Helvetica;fontColor=default;fontStyle=1" parent="1" vertex="1">
          <mxGeometry x="880" y="321" width="220" height="30" as="geometry" />
        </mxCell>
        <mxCell id="b4Q8vLsIhjk_OLkRmcc2-89" value="&lt;font style=&quot;font-size: 16px;&quot;&gt;/api/movielist/:id&lt;/font&gt;" style="text;html=1;align=center;verticalAlign=middle;resizable=0;points=[];autosize=1;strokeColor=none;fillColor=none;fontSize=11;fontFamily=Helvetica;fontColor=default;" parent="1" vertex="1">
          <mxGeometry x="910" y="389" width="140" height="30" as="geometry" />
        </mxCell>
        <mxCell id="b4Q8vLsIhjk_OLkRmcc2-90" value="GET" style="swimlane;whiteSpace=wrap;html=1;fontFamily=Helvetica;fontSize=11;fontColor=#ffffff;fillColor=#008a00;strokeColor=#005700;" parent="1" vertex="1">
          <mxGeometry x="880" y="635" width="200" height="60" as="geometry" />
        </mxCell>
        <mxCell id="b4Q8vLsIhjk_OLkRmcc2-91" value="&lt;span style=&quot;&quot;&gt;Favorites-List anzeigen&lt;/span&gt;" style="text;html=1;strokeColor=none;fillColor=none;align=left;verticalAlign=middle;whiteSpace=wrap;rounded=0;fontSize=16;fontFamily=Helvetica;fontColor=default;fontStyle=1" parent="1" vertex="1">
          <mxGeometry x="880" y="595" width="220" height="30" as="geometry" />
        </mxCell>
        <mxCell id="b4Q8vLsIhjk_OLkRmcc2-92" value="&lt;font style=&quot;font-size: 16px;&quot;&gt;/api/movielist/favorites&lt;/font&gt;" style="text;html=1;align=center;verticalAlign=middle;resizable=0;points=[];autosize=1;strokeColor=none;fillColor=none;fontSize=11;fontFamily=Helvetica;fontColor=default;" parent="1" vertex="1">
          <mxGeometry x="890" y="663" width="180" height="30" as="geometry" />
        </mxCell>
        <mxCell id="b4Q8vLsIhjk_OLkRmcc2-93" value="GET /api/movielist" style="swimlane;whiteSpace=wrap;html=1;fontFamily=Helvetica;fontSize=14;fontColor=#ffffff;fillColor=#60a917;strokeColor=#2D7600;" parent="1" vertex="1">
          <mxGeometry x="1230" y="123" width="190" height="60" as="geometry" />
        </mxCell>
        <mxCell id="b4Q8vLsIhjk_OLkRmcc2-94" value="body: empty" style="text;html=1;strokeColor=none;fillColor=none;align=left;verticalAlign=middle;whiteSpace=wrap;rounded=0;fontSize=16;fontFamily=Helvetica;fontColor=default;" parent="b4Q8vLsIhjk_OLkRmcc2-93" vertex="1">
          <mxGeometry x="10" y="27" width="150" height="33" as="geometry" />
        </mxCell>
        <mxCell id="b4Q8vLsIhjk_OLkRmcc2-102" style="edgeStyle=orthogonalEdgeStyle;shape=connector;rounded=0;orthogonalLoop=1;jettySize=auto;html=1;entryX=1;entryY=0.75;entryDx=0;entryDy=0;labelBackgroundColor=default;strokeColor=default;strokeWidth=2;align=center;verticalAlign=middle;fontFamily=Helvetica;fontSize=11;fontColor=default;endArrow=classic;" parent="1" source="b4Q8vLsIhjk_OLkRmcc2-95" target="b4Q8vLsIhjk_OLkRmcc2-80" edge="1">
          <mxGeometry relative="1" as="geometry" />
        </mxCell>
        <mxCell id="b4Q8vLsIhjk_OLkRmcc2-103" value="&lt;font style=&quot;font-size: 16px;&quot;&gt;res&lt;/font&gt;" style="edgeLabel;html=1;align=center;verticalAlign=middle;resizable=0;points=[];fontSize=11;fontFamily=Helvetica;fontColor=default;" parent="b4Q8vLsIhjk_OLkRmcc2-102" vertex="1" connectable="0">
          <mxGeometry x="0.1243" y="3" relative="1" as="geometry">
            <mxPoint y="12" as="offset" />
          </mxGeometry>
        </mxCell>
        <mxCell id="b4Q8vLsIhjk_OLkRmcc2-95" value="GET /api/movielist" style="swimlane;whiteSpace=wrap;html=1;fontFamily=Helvetica;fontSize=14;fontColor=#ffffff;fillColor=#60a917;strokeColor=#2D7600;" parent="1" vertex="1">
          <mxGeometry x="1230" y="205" width="280" height="90" as="geometry" />
        </mxCell>
        <mxCell id="b4Q8vLsIhjk_OLkRmcc2-96" value="{ success: true,&lt;br&gt;result: [{movie1}, {movie2}, ...]}" style="text;html=1;strokeColor=none;fillColor=none;align=left;verticalAlign=middle;whiteSpace=wrap;rounded=0;fontSize=16;fontFamily=Helvetica;fontColor=default;" parent="b4Q8vLsIhjk_OLkRmcc2-95" vertex="1">
          <mxGeometry x="10" y="35" width="260" height="45" as="geometry" />
        </mxCell>
        <mxCell id="b4Q8vLsIhjk_OLkRmcc2-105" value="GET /api/movielist" style="swimlane;whiteSpace=wrap;html=1;fontFamily=Helvetica;fontSize=14;fontColor=#ffffff;fillColor=#60a917;strokeColor=#2D7600;" parent="1" vertex="1">
          <mxGeometry x="1230" y="361" width="190" height="60" as="geometry" />
        </mxCell>
        <mxCell id="b4Q8vLsIhjk_OLkRmcc2-106" value="body: find({ id })" style="text;html=1;strokeColor=none;fillColor=none;align=left;verticalAlign=middle;whiteSpace=wrap;rounded=0;fontSize=16;fontFamily=Helvetica;fontColor=default;" parent="b4Q8vLsIhjk_OLkRmcc2-105" vertex="1">
          <mxGeometry x="10" y="27" width="150" height="33" as="geometry" />
        </mxCell>
        <mxCell id="b4Q8vLsIhjk_OLkRmcc2-111" style="edgeStyle=orthogonalEdgeStyle;shape=connector;rounded=0;orthogonalLoop=1;jettySize=auto;html=1;entryX=1;entryY=0.75;entryDx=0;entryDy=0;labelBackgroundColor=default;strokeColor=default;strokeWidth=2;align=center;verticalAlign=middle;fontFamily=Helvetica;fontSize=11;fontColor=default;endArrow=classic;" parent="1" source="b4Q8vLsIhjk_OLkRmcc2-107" target="b4Q8vLsIhjk_OLkRmcc2-87" edge="1">
          <mxGeometry relative="1" as="geometry" />
        </mxCell>
        <mxCell id="b4Q8vLsIhjk_OLkRmcc2-112" value="&lt;font style=&quot;font-size: 16px;&quot;&gt;res&lt;/font&gt;" style="edgeLabel;html=1;align=center;verticalAlign=middle;resizable=0;points=[];fontSize=11;fontFamily=Helvetica;fontColor=default;" parent="b4Q8vLsIhjk_OLkRmcc2-111" vertex="1" connectable="0">
          <mxGeometry x="-0.1775" y="3" relative="1" as="geometry">
            <mxPoint y="-24" as="offset" />
          </mxGeometry>
        </mxCell>
        <mxCell id="b4Q8vLsIhjk_OLkRmcc2-107" value="GET /api/movielist" style="swimlane;whiteSpace=wrap;html=1;fontFamily=Helvetica;fontSize=14;fontColor=#ffffff;fillColor=#60a917;strokeColor=#2D7600;" parent="1" vertex="1">
          <mxGeometry x="1230" y="443" width="280" height="90" as="geometry" />
        </mxCell>
        <mxCell id="b4Q8vLsIhjk_OLkRmcc2-108" value="{ success: true,&lt;br&gt;result: {movie id, name, director, ...}" style="text;html=1;strokeColor=none;fillColor=none;align=left;verticalAlign=middle;whiteSpace=wrap;rounded=0;fontSize=16;fontFamily=Helvetica;fontColor=default;" parent="b4Q8vLsIhjk_OLkRmcc2-107" vertex="1">
          <mxGeometry x="10" y="35" width="260" height="45" as="geometry" />
        </mxCell>
        <mxCell id="b4Q8vLsIhjk_OLkRmcc2-114" value="" style="endArrow=none;dashed=1;html=1;dashPattern=1 3;strokeWidth=2;rounded=0;labelBackgroundColor=default;strokeColor=default;align=center;verticalAlign=middle;fontFamily=Helvetica;fontSize=11;fontColor=default;shape=connector;edgeStyle=orthogonalEdgeStyle;" parent="1" edge="1">
          <mxGeometry width="50" height="50" relative="1" as="geometry">
            <mxPoint x="875" y="1680" as="sourcePoint" />
            <mxPoint x="1555" y="1680" as="targetPoint" />
          </mxGeometry>
        </mxCell>
        <mxCell id="b4Q8vLsIhjk_OLkRmcc2-115" value="POST" style="swimlane;whiteSpace=wrap;html=1;fontFamily=Helvetica;fontSize=11;fontColor=#ffffff;fillColor=#d80073;strokeColor=#A50040;" parent="1" vertex="1">
          <mxGeometry x="880" y="775" width="200" height="60" as="geometry" />
        </mxCell>
        <mxCell id="b4Q8vLsIhjk_OLkRmcc2-116" value="&lt;span style=&quot;&quot;&gt;Favorite hinzufügen zur Favorites-List&lt;/span&gt;" style="text;html=1;strokeColor=none;fillColor=none;align=left;verticalAlign=middle;whiteSpace=wrap;rounded=0;fontSize=16;fontFamily=Helvetica;fontColor=default;fontStyle=1" parent="1" vertex="1">
          <mxGeometry x="880" y="735" width="320" height="30" as="geometry" />
        </mxCell>
        <mxCell id="b4Q8vLsIhjk_OLkRmcc2-130" style="edgeStyle=orthogonalEdgeStyle;shape=connector;rounded=0;orthogonalLoop=1;jettySize=auto;html=1;entryX=0.5;entryY=0;entryDx=0;entryDy=0;labelBackgroundColor=default;strokeColor=default;strokeWidth=2;align=center;verticalAlign=middle;fontFamily=Helvetica;fontSize=11;fontColor=default;endArrow=classic;" parent="1" source="b4Q8vLsIhjk_OLkRmcc2-117" target="b4Q8vLsIhjk_OLkRmcc2-126" edge="1">
          <mxGeometry relative="1" as="geometry" />
        </mxCell>
        <mxCell id="b4Q8vLsIhjk_OLkRmcc2-132" value="&lt;font style=&quot;font-size: 13px;&quot;&gt;add document to collection favMovies&lt;/font&gt;" style="edgeLabel;html=1;align=center;verticalAlign=middle;resizable=0;points=[];fontSize=11;fontFamily=Helvetica;fontColor=default;" parent="b4Q8vLsIhjk_OLkRmcc2-130" vertex="1" connectable="0">
          <mxGeometry x="-0.2737" relative="1" as="geometry">
            <mxPoint as="offset" />
          </mxGeometry>
        </mxCell>
        <mxCell id="b4Q8vLsIhjk_OLkRmcc2-117" value="&lt;font style=&quot;font-size: 16px;&quot;&gt;/api/movielist/favorites&lt;/font&gt;" style="text;html=1;align=center;verticalAlign=middle;resizable=0;points=[];autosize=1;strokeColor=none;fillColor=none;fontSize=11;fontFamily=Helvetica;fontColor=default;" parent="1" vertex="1">
          <mxGeometry x="890" y="803" width="180" height="30" as="geometry" />
        </mxCell>
        <mxCell id="b4Q8vLsIhjk_OLkRmcc2-118" value="POST /api/movielist/favorites" style="swimlane;whiteSpace=wrap;html=1;fontFamily=Helvetica;fontSize=14;fontColor=#ffffff;fillColor=#d80073;strokeColor=#A50040;" parent="1" vertex="1">
          <mxGeometry x="1215" y="775" width="295" height="120" as="geometry" />
        </mxCell>
        <mxCell id="b4Q8vLsIhjk_OLkRmcc2-119" value="body:&amp;nbsp;&lt;br style=&quot;font-size: 16px;&quot;&gt;Content: {title: ... , name: ... , director: ..., addedToFavs: true}" style="text;html=1;strokeColor=none;fillColor=none;align=left;verticalAlign=middle;whiteSpace=wrap;rounded=0;fontSize=16;fontFamily=Helvetica;fontColor=default;" parent="b4Q8vLsIhjk_OLkRmcc2-118" vertex="1">
          <mxGeometry x="10" y="28" width="280" height="82" as="geometry" />
        </mxCell>
        <mxCell id="b4Q8vLsIhjk_OLkRmcc2-120" value="POST /api/movielist/favorites" style="swimlane;whiteSpace=wrap;html=1;fontFamily=Helvetica;fontSize=14;fontColor=#ffffff;fillColor=#d80073;strokeColor=#A50040;" parent="1" vertex="1">
          <mxGeometry x="1215" y="910" width="295" height="120" as="geometry" />
        </mxCell>
        <mxCell id="b4Q8vLsIhjk_OLkRmcc2-121" value="status: 201 (created)&lt;br&gt;{ success: true, &lt;br&gt;result: [ {-- alle movies auf favoriteslist inkl. dem neuen movie} ]" style="text;html=1;strokeColor=none;fillColor=none;align=left;verticalAlign=middle;whiteSpace=wrap;rounded=0;fontSize=16;fontFamily=Helvetica;fontColor=default;" parent="b4Q8vLsIhjk_OLkRmcc2-120" vertex="1">
          <mxGeometry x="10" y="28" width="280" height="82" as="geometry" />
        </mxCell>
        <mxCell id="b4Q8vLsIhjk_OLkRmcc2-122" style="edgeStyle=orthogonalEdgeStyle;shape=connector;rounded=0;orthogonalLoop=1;jettySize=auto;html=1;entryX=1;entryY=0.5;entryDx=0;entryDy=0;labelBackgroundColor=default;strokeColor=default;strokeWidth=2;align=center;verticalAlign=middle;fontFamily=Helvetica;fontSize=11;fontColor=default;endArrow=classic;" parent="1" source="b4Q8vLsIhjk_OLkRmcc2-119" target="b4Q8vLsIhjk_OLkRmcc2-115" edge="1">
          <mxGeometry relative="1" as="geometry" />
        </mxCell>
        <mxCell id="b4Q8vLsIhjk_OLkRmcc2-131" style="edgeStyle=orthogonalEdgeStyle;shape=connector;rounded=0;orthogonalLoop=1;jettySize=auto;html=1;entryX=0;entryY=0.5;entryDx=0;entryDy=0;labelBackgroundColor=default;strokeColor=default;strokeWidth=2;align=center;verticalAlign=middle;fontFamily=Helvetica;fontSize=11;fontColor=default;endArrow=classic;" parent="1" source="b4Q8vLsIhjk_OLkRmcc2-126" target="b4Q8vLsIhjk_OLkRmcc2-120" edge="1">
          <mxGeometry relative="1" as="geometry">
            <Array as="points">
              <mxPoint x="1150" y="970" />
              <mxPoint x="1150" y="970" />
            </Array>
          </mxGeometry>
        </mxCell>
        <mxCell id="b4Q8vLsIhjk_OLkRmcc2-133" value="&lt;font style=&quot;font-size: 12px;&quot;&gt;show updated&lt;br&gt;favList&lt;/font&gt;" style="edgeLabel;html=1;align=center;verticalAlign=middle;resizable=0;points=[];fontSize=11;fontFamily=Helvetica;fontColor=default;" parent="b4Q8vLsIhjk_OLkRmcc2-131" vertex="1" connectable="0">
          <mxGeometry x="-0.132" y="3" relative="1" as="geometry">
            <mxPoint as="offset" />
          </mxGeometry>
        </mxCell>
        <mxCell id="b4Q8vLsIhjk_OLkRmcc2-126" value="Datenbank moviesDB" style="swimlane;whiteSpace=wrap;html=1;fillColor=#76608a;strokeColor=#432D57;fontColor=#ffffff;" parent="1" vertex="1">
          <mxGeometry x="875" y="905" width="210" height="130" as="geometry" />
        </mxCell>
        <mxCell id="b4Q8vLsIhjk_OLkRmcc2-127" value="&lt;font style=&quot;font-size: 16px;&quot;&gt;&lt;b&gt;collection&lt;/b&gt;: favMovies&lt;/font&gt;" style="text;html=1;strokeColor=none;fillColor=none;align=center;verticalAlign=middle;whiteSpace=wrap;rounded=0;" parent="b4Q8vLsIhjk_OLkRmcc2-126" vertex="1">
          <mxGeometry x="20" y="30" width="160" height="30" as="geometry" />
        </mxCell>
        <mxCell id="b4Q8vLsIhjk_OLkRmcc2-128" value="&lt;span style=&quot;font-size: 16px;&quot;&gt;&lt;b&gt;documents&lt;/b&gt;:&lt;br&gt;fav#1&lt;span style=&quot;white-space: pre;&quot;&gt;&#x9;&lt;/span&gt;fav#2 ...&lt;br&gt;&lt;/span&gt;" style="text;html=1;strokeColor=none;fillColor=none;align=left;verticalAlign=middle;whiteSpace=wrap;rounded=0;" parent="b4Q8vLsIhjk_OLkRmcc2-126" vertex="1">
          <mxGeometry x="20" y="60" width="160" height="60" as="geometry" />
        </mxCell>
        <mxCell id="b4Q8vLsIhjk_OLkRmcc2-134" value="DELETE" style="swimlane;whiteSpace=wrap;html=1;fontFamily=Helvetica;fontSize=11;fontColor=#ffffff;fillColor=#e51400;strokeColor=#B20000;" parent="1" vertex="1">
          <mxGeometry x="885" y="1270" width="200" height="60" as="geometry" />
        </mxCell>
        <mxCell id="b4Q8vLsIhjk_OLkRmcc2-135" value="&lt;span style=&quot;&quot;&gt;Favorite löschen aus Favorites-List&lt;/span&gt;" style="text;html=1;strokeColor=none;fillColor=none;align=left;verticalAlign=middle;whiteSpace=wrap;rounded=0;fontSize=16;fontFamily=Helvetica;fontColor=default;fontStyle=1" parent="1" vertex="1">
          <mxGeometry x="885" y="1230" width="320" height="30" as="geometry" />
        </mxCell>
        <mxCell id="b4Q8vLsIhjk_OLkRmcc2-136" style="edgeStyle=orthogonalEdgeStyle;shape=connector;rounded=0;orthogonalLoop=1;jettySize=auto;html=1;entryX=0.5;entryY=0;entryDx=0;entryDy=0;labelBackgroundColor=default;strokeColor=default;strokeWidth=2;align=center;verticalAlign=middle;fontFamily=Helvetica;fontSize=11;fontColor=default;endArrow=classic;" parent="1" source="b4Q8vLsIhjk_OLkRmcc2-138" target="b4Q8vLsIhjk_OLkRmcc2-146" edge="1">
          <mxGeometry relative="1" as="geometry" />
        </mxCell>
        <mxCell id="b4Q8vLsIhjk_OLkRmcc2-137" value="&lt;font style=&quot;font-size: 13px;&quot;&gt;remove document from collection favMovies&lt;/font&gt;" style="edgeLabel;html=1;align=center;verticalAlign=middle;resizable=0;points=[];fontSize=11;fontFamily=Helvetica;fontColor=default;" parent="b4Q8vLsIhjk_OLkRmcc2-136" vertex="1" connectable="0">
          <mxGeometry x="-0.2737" relative="1" as="geometry">
            <mxPoint as="offset" />
          </mxGeometry>
        </mxCell>
        <mxCell id="b4Q8vLsIhjk_OLkRmcc2-138" value="&lt;font style=&quot;font-size: 16px;&quot;&gt;/api/movielist/favorites&lt;/font&gt;" style="text;html=1;align=center;verticalAlign=middle;resizable=0;points=[];autosize=1;strokeColor=none;fillColor=none;fontSize=11;fontFamily=Helvetica;fontColor=default;" parent="1" vertex="1">
          <mxGeometry x="895" y="1298" width="180" height="30" as="geometry" />
        </mxCell>
        <mxCell id="b4Q8vLsIhjk_OLkRmcc2-139" value="DELETE /api/movielist/favorites" style="swimlane;whiteSpace=wrap;html=1;fontFamily=Helvetica;fontSize=14;fontColor=#ffffff;fillColor=#e51400;strokeColor=#B20000;" parent="1" vertex="1">
          <mxGeometry x="1220" y="1270" width="295" height="120" as="geometry" />
        </mxCell>
        <mxCell id="b4Q8vLsIhjk_OLkRmcc2-140" value="body:&amp;nbsp;&lt;br style=&quot;font-size: 16px;&quot;&gt;Content: {title: ... , name: ... , director: ..., removedFromFavs: true}" style="text;html=1;strokeColor=none;fillColor=none;align=left;verticalAlign=middle;whiteSpace=wrap;rounded=0;fontSize=16;fontFamily=Helvetica;fontColor=default;" parent="b4Q8vLsIhjk_OLkRmcc2-139" vertex="1">
          <mxGeometry x="10" y="28" width="280" height="82" as="geometry" />
        </mxCell>
        <mxCell id="b4Q8vLsIhjk_OLkRmcc2-141" value="DELETE /api/movielist/favorites" style="swimlane;whiteSpace=wrap;html=1;fontFamily=Helvetica;fontSize=14;fontColor=#ffffff;fillColor=#e51400;strokeColor=#B20000;" parent="1" vertex="1">
          <mxGeometry x="1220" y="1405" width="295" height="120" as="geometry" />
        </mxCell>
        <mxCell id="b4Q8vLsIhjk_OLkRmcc2-142" value="status: 201 (created)&lt;br&gt;{ success: true, &lt;br&gt;result: [ {-- alle movies auf favoriteslist ohne gelöschtes movie} ]" style="text;html=1;strokeColor=none;fillColor=none;align=left;verticalAlign=middle;whiteSpace=wrap;rounded=0;fontSize=16;fontFamily=Helvetica;fontColor=default;" parent="b4Q8vLsIhjk_OLkRmcc2-141" vertex="1">
          <mxGeometry x="10" y="28" width="280" height="82" as="geometry" />
        </mxCell>
        <mxCell id="b4Q8vLsIhjk_OLkRmcc2-143" style="edgeStyle=orthogonalEdgeStyle;shape=connector;rounded=0;orthogonalLoop=1;jettySize=auto;html=1;entryX=1;entryY=0.5;entryDx=0;entryDy=0;labelBackgroundColor=default;strokeColor=default;strokeWidth=2;align=center;verticalAlign=middle;fontFamily=Helvetica;fontSize=11;fontColor=default;endArrow=classic;" parent="1" source="b4Q8vLsIhjk_OLkRmcc2-140" target="b4Q8vLsIhjk_OLkRmcc2-134" edge="1">
          <mxGeometry relative="1" as="geometry" />
        </mxCell>
        <mxCell id="b4Q8vLsIhjk_OLkRmcc2-144" style="edgeStyle=orthogonalEdgeStyle;shape=connector;rounded=0;orthogonalLoop=1;jettySize=auto;html=1;entryX=0;entryY=0.5;entryDx=0;entryDy=0;labelBackgroundColor=default;strokeColor=default;strokeWidth=2;align=center;verticalAlign=middle;fontFamily=Helvetica;fontSize=11;fontColor=default;endArrow=classic;" parent="1" source="b4Q8vLsIhjk_OLkRmcc2-146" target="b4Q8vLsIhjk_OLkRmcc2-141" edge="1">
          <mxGeometry relative="1" as="geometry">
            <Array as="points">
              <mxPoint x="1155" y="1465" />
              <mxPoint x="1155" y="1465" />
            </Array>
          </mxGeometry>
        </mxCell>
        <mxCell id="b4Q8vLsIhjk_OLkRmcc2-145" value="&lt;font style=&quot;font-size: 12px;&quot;&gt;show updated&lt;br&gt;favList&lt;/font&gt;" style="edgeLabel;html=1;align=center;verticalAlign=middle;resizable=0;points=[];fontSize=11;fontFamily=Helvetica;fontColor=default;" parent="b4Q8vLsIhjk_OLkRmcc2-144" vertex="1" connectable="0">
          <mxGeometry x="-0.132" y="3" relative="1" as="geometry">
            <mxPoint as="offset" />
          </mxGeometry>
        </mxCell>
        <mxCell id="b4Q8vLsIhjk_OLkRmcc2-146" value="Datenbank moviesDB" style="swimlane;whiteSpace=wrap;html=1;fillColor=#76608a;strokeColor=#432D57;fontColor=#ffffff;" parent="1" vertex="1">
          <mxGeometry x="880" y="1400" width="210" height="130" as="geometry" />
        </mxCell>
        <mxCell id="b4Q8vLsIhjk_OLkRmcc2-147" value="&lt;font style=&quot;font-size: 16px;&quot;&gt;&lt;b&gt;collection&lt;/b&gt;: favMovies&lt;/font&gt;" style="text;html=1;strokeColor=none;fillColor=none;align=center;verticalAlign=middle;whiteSpace=wrap;rounded=0;" parent="b4Q8vLsIhjk_OLkRmcc2-146" vertex="1">
          <mxGeometry x="20" y="30" width="160" height="30" as="geometry" />
        </mxCell>
        <mxCell id="b4Q8vLsIhjk_OLkRmcc2-148" value="&lt;span style=&quot;font-size: 16px;&quot;&gt;&lt;b&gt;documents&lt;/b&gt;:&lt;br&gt;fav#1&lt;span style=&quot;white-space: pre;&quot;&gt;&#x9;&lt;/span&gt;fav#2 ...&lt;br&gt;&lt;/span&gt;" style="text;html=1;strokeColor=none;fillColor=none;align=left;verticalAlign=middle;whiteSpace=wrap;rounded=0;" parent="b4Q8vLsIhjk_OLkRmcc2-146" vertex="1">
          <mxGeometry x="20" y="60" width="160" height="60" as="geometry" />
        </mxCell>
        <mxCell id="7pNdxdmX-lWLdzs3CtEX-1" value="" style="group" vertex="1" connectable="0" parent="1">
          <mxGeometry x="1700" y="300" width="1670" height="1510" as="geometry" />
        </mxCell>
        <mxCell id="b4Q8vLsIhjk_OLkRmcc2-4" value="Datenbank moviesDB" style="swimlane;whiteSpace=wrap;html=1;fillColor=#76608a;strokeColor=#432D57;fontColor=#ffffff;" parent="7pNdxdmX-lWLdzs3CtEX-1" vertex="1">
          <mxGeometry x="-40" y="250" width="200" height="160" as="geometry" />
        </mxCell>
        <mxCell id="b4Q8vLsIhjk_OLkRmcc2-5" value="&lt;font style=&quot;font-size: 16px;&quot;&gt;&lt;b&gt;collection&lt;/b&gt;: allMovies&lt;/font&gt;" style="text;html=1;strokeColor=none;fillColor=none;align=center;verticalAlign=middle;whiteSpace=wrap;rounded=0;" parent="b4Q8vLsIhjk_OLkRmcc2-4" vertex="1">
          <mxGeometry x="20" y="40" width="160" height="30" as="geometry" />
        </mxCell>
        <mxCell id="b4Q8vLsIhjk_OLkRmcc2-71" value="&lt;div style=&quot;&quot;&gt;&lt;b style=&quot;font-size: 16px; background-color: initial;&quot;&gt;documents:&lt;/b&gt;&lt;/div&gt;&lt;div style=&quot;&quot;&gt;&lt;span style=&quot;font-size: 16px; background-color: initial;&quot;&gt;movie#1&lt;span style=&quot;white-space: pre;&quot;&gt;&#x9;&lt;/span&gt;movie#2&lt;/span&gt;&lt;/div&gt;&lt;div style=&quot;&quot;&gt;&lt;span style=&quot;font-size: 16px; background-color: initial;&quot;&gt;movie#3&lt;span style=&quot;white-space: pre;&quot;&gt;&#x9;&lt;/span&gt;...&lt;/span&gt;&lt;/div&gt;" style="text;html=1;strokeColor=none;fillColor=none;align=left;verticalAlign=middle;whiteSpace=wrap;rounded=0;" parent="b4Q8vLsIhjk_OLkRmcc2-4" vertex="1">
          <mxGeometry x="20" y="70" width="160" height="80" as="geometry" />
        </mxCell>
        <mxCell id="b4Q8vLsIhjk_OLkRmcc2-8" value="&lt;font style=&quot;font-size: 16px;&quot;&gt;Start&lt;/font&gt;" style="rounded=1;whiteSpace=wrap;html=1;fillColor=#1ba1e2;fontColor=#ffffff;strokeColor=#006EAF;" parent="7pNdxdmX-lWLdzs3CtEX-1" vertex="1">
          <mxGeometry x="290" y="-250" width="120" height="40" as="geometry" />
        </mxCell>
        <mxCell id="b4Q8vLsIhjk_OLkRmcc2-9" value="&lt;font style=&quot;font-size: 16px;&quot;&gt;Home.jsx&lt;br&gt;&lt;/font&gt;" style="rounded=0;whiteSpace=wrap;html=1;fillColor=#fa6800;fontColor=#000000;strokeColor=#C73500;" parent="7pNdxdmX-lWLdzs3CtEX-1" vertex="1">
          <mxGeometry x="240" y="-160" width="220" height="50" as="geometry" />
        </mxCell>
        <mxCell id="b4Q8vLsIhjk_OLkRmcc2-15" style="edgeStyle=orthogonalEdgeStyle;rounded=0;orthogonalLoop=1;jettySize=auto;html=1;entryX=0.5;entryY=0;entryDx=0;entryDy=0;strokeWidth=2;" parent="7pNdxdmX-lWLdzs3CtEX-1" source="b4Q8vLsIhjk_OLkRmcc2-8" target="b4Q8vLsIhjk_OLkRmcc2-9" edge="1">
          <mxGeometry relative="1" as="geometry" />
        </mxCell>
        <mxCell id="b4Q8vLsIhjk_OLkRmcc2-11" value="&lt;font style=&quot;font-size: 16px;&quot;&gt;click auf Stern (FavoritesList)&lt;br&gt;&lt;/font&gt;" style="rounded=0;whiteSpace=wrap;html=1;fillColor=#008a00;fontColor=#ffffff;strokeColor=#005700;" parent="7pNdxdmX-lWLdzs3CtEX-1" vertex="1">
          <mxGeometry x="563.75" y="57.5" width="185" height="50" as="geometry" />
        </mxCell>
        <mxCell id="7pNdxdmX-lWLdzs3CtEX-11" style="edgeStyle=orthogonalEdgeStyle;rounded=0;orthogonalLoop=1;jettySize=auto;html=1;entryX=0.5;entryY=0;entryDx=0;entryDy=0;strokeWidth=2;" edge="1" parent="7pNdxdmX-lWLdzs3CtEX-1" source="b4Q8vLsIhjk_OLkRmcc2-12" target="b4Q8vLsIhjk_OLkRmcc2-13">
          <mxGeometry relative="1" as="geometry" />
        </mxCell>
        <mxCell id="b4Q8vLsIhjk_OLkRmcc2-12" value="&lt;font style=&quot;font-size: 16px;&quot;&gt;Click auf einen Film&lt;br&gt;&lt;/font&gt;" style="rounded=0;whiteSpace=wrap;html=1;fillColor=#008a00;fontColor=#ffffff;strokeColor=#005700;" parent="7pNdxdmX-lWLdzs3CtEX-1" vertex="1">
          <mxGeometry x="563.75" y="552.5" width="185" height="50" as="geometry" />
        </mxCell>
        <mxCell id="b4Q8vLsIhjk_OLkRmcc2-13" value="&lt;font style=&quot;font-size: 16px;&quot;&gt;MovieDetail.jsx&lt;br&gt;&lt;/font&gt;" style="rounded=0;whiteSpace=wrap;html=1;fillColor=#fa6800;fontColor=#000000;strokeColor=#C73500;" parent="7pNdxdmX-lWLdzs3CtEX-1" vertex="1">
          <mxGeometry x="566.25" y="697.5" width="180" height="50" as="geometry" />
        </mxCell>
        <mxCell id="b4Q8vLsIhjk_OLkRmcc2-28" style="edgeStyle=orthogonalEdgeStyle;shape=connector;rounded=0;orthogonalLoop=1;jettySize=auto;html=1;entryX=1;entryY=0.5;entryDx=0;entryDy=0;labelBackgroundColor=default;strokeColor=default;strokeWidth=2;align=center;verticalAlign=middle;fontFamily=Helvetica;fontSize=11;fontColor=default;endArrow=classic;dashed=1;" parent="7pNdxdmX-lWLdzs3CtEX-1" source="b4Q8vLsIhjk_OLkRmcc2-13" target="7pNdxdmX-lWLdzs3CtEX-6" edge="1">
          <mxGeometry relative="1" as="geometry" />
        </mxCell>
        <mxCell id="b4Q8vLsIhjk_OLkRmcc2-58" style="edgeStyle=orthogonalEdgeStyle;shape=connector;rounded=0;orthogonalLoop=1;jettySize=auto;html=1;entryX=0;entryY=0.5;entryDx=0;entryDy=0;labelBackgroundColor=default;strokeColor=default;strokeWidth=2;align=center;verticalAlign=middle;fontFamily=Helvetica;fontSize=11;fontColor=default;endArrow=classic;" parent="7pNdxdmX-lWLdzs3CtEX-1" source="b4Q8vLsIhjk_OLkRmcc2-20" target="b4Q8vLsIhjk_OLkRmcc2-11" edge="1">
          <mxGeometry relative="1" as="geometry" />
        </mxCell>
        <mxCell id="b4Q8vLsIhjk_OLkRmcc2-59" style="edgeStyle=orthogonalEdgeStyle;shape=connector;rounded=0;orthogonalLoop=1;jettySize=auto;html=1;labelBackgroundColor=default;strokeColor=default;strokeWidth=2;align=center;verticalAlign=middle;fontFamily=Helvetica;fontSize=11;fontColor=default;endArrow=classic;entryX=0.25;entryY=0;entryDx=0;entryDy=0;" parent="7pNdxdmX-lWLdzs3CtEX-1" source="b4Q8vLsIhjk_OLkRmcc2-20" target="b4Q8vLsIhjk_OLkRmcc2-13" edge="1">
          <mxGeometry relative="1" as="geometry">
            <Array as="points">
              <mxPoint x="350" y="630" />
              <mxPoint x="620" y="630" />
              <mxPoint x="620" y="697" />
            </Array>
            <mxPoint x="656" y="690" as="targetPoint" />
          </mxGeometry>
        </mxCell>
        <mxCell id="b4Q8vLsIhjk_OLkRmcc2-62" value="&lt;font style=&quot;font-size: 16px;&quot;&gt;Film auswählen&amp;nbsp;&lt;/font&gt;" style="edgeLabel;html=1;align=center;verticalAlign=middle;resizable=0;points=[];fontSize=11;fontFamily=Helvetica;fontColor=default;" parent="b4Q8vLsIhjk_OLkRmcc2-59" vertex="1" connectable="0">
          <mxGeometry x="-0.4598" y="1" relative="1" as="geometry">
            <mxPoint x="-1" y="80" as="offset" />
          </mxGeometry>
        </mxCell>
        <mxCell id="b4Q8vLsIhjk_OLkRmcc2-20" value="&lt;font style=&quot;font-size: 16px;&quot;&gt;MovieList.jsx&lt;br&gt;all movies&lt;br style=&quot;border-color: var(--border-color);&quot;&gt;(poster, title, director)&lt;br&gt;&lt;/font&gt;" style="rounded=0;whiteSpace=wrap;html=1;fillColor=#fa6800;fontColor=#000000;strokeColor=#C73500;" parent="7pNdxdmX-lWLdzs3CtEX-1" vertex="1">
          <mxGeometry x="240" y="30" width="220" height="90" as="geometry" />
        </mxCell>
        <mxCell id="b4Q8vLsIhjk_OLkRmcc2-66" style="edgeStyle=orthogonalEdgeStyle;shape=connector;rounded=0;orthogonalLoop=1;jettySize=auto;html=1;entryX=0.25;entryY=1;entryDx=0;entryDy=0;labelBackgroundColor=default;strokeColor=#432D57;strokeWidth=5;align=center;verticalAlign=middle;fontFamily=Helvetica;fontSize=11;fontColor=default;endArrow=classic;dashed=1;dashPattern=1 1;fillColor=#76608a;" parent="7pNdxdmX-lWLdzs3CtEX-1" source="b4Q8vLsIhjk_OLkRmcc2-4" target="b4Q8vLsIhjk_OLkRmcc2-20" edge="1">
          <mxGeometry relative="1" as="geometry" />
        </mxCell>
        <mxCell id="b4Q8vLsIhjk_OLkRmcc2-21" style="edgeStyle=orthogonalEdgeStyle;shape=connector;rounded=0;orthogonalLoop=1;jettySize=auto;html=1;entryX=0.5;entryY=0;entryDx=0;entryDy=0;labelBackgroundColor=default;strokeColor=default;strokeWidth=2;align=center;verticalAlign=middle;fontFamily=Helvetica;fontSize=11;fontColor=default;endArrow=classic;" parent="7pNdxdmX-lWLdzs3CtEX-1" source="b4Q8vLsIhjk_OLkRmcc2-9" target="b4Q8vLsIhjk_OLkRmcc2-20" edge="1">
          <mxGeometry relative="1" as="geometry" />
        </mxCell>
        <mxCell id="b4Q8vLsIhjk_OLkRmcc2-23" value="&lt;div style=&quot;text-align: left;&quot;&gt;&lt;u style=&quot;font-size: 16px; background-color: initial;&quot;&gt;Features:&lt;/u&gt;&lt;/div&gt;&lt;font style=&quot;&quot;&gt;&lt;div style=&quot;text-align: left;&quot;&gt;&lt;span style=&quot;font-size: 16px; background-color: initial;&quot;&gt;- show all movies&lt;/span&gt;&lt;/div&gt;&lt;div style=&quot;text-align: left;&quot;&gt;&lt;span style=&quot;font-size: 16px; background-color: initial;&quot;&gt;--&amp;gt; click on ListItem --&amp;gt; show Detailspage&lt;/span&gt;&lt;/div&gt;&lt;div style=&quot;text-align: left;&quot;&gt;&lt;span style=&quot;font-size: 16px; background-color: initial;&quot;&gt;--&amp;gt; Button: add To FavoritesList&lt;/span&gt;&lt;/div&gt;&lt;div style=&quot;text-align: left;&quot;&gt;&lt;span style=&quot;font-size: 16px; background-color: initial;&quot;&gt;--&amp;gt; Button: remove From FavoritesList&lt;/span&gt;&lt;/div&gt;&lt;div style=&quot;text-align: left;&quot;&gt;&lt;span style=&quot;font-size: 16px; background-color: initial;&quot;&gt;&lt;br&gt;&lt;/span&gt;&lt;/div&gt;&lt;span style=&quot;font-size: 16px;&quot;&gt;&lt;div style=&quot;text-align: left;&quot;&gt;&lt;span style=&quot;background-color: initial;&quot;&gt;- search for movie&lt;/span&gt;&lt;/div&gt;&lt;/span&gt;&lt;/font&gt;" style="rounded=0;whiteSpace=wrap;html=1;fillColor=#f0a30a;fontColor=#000000;strokeColor=#BD7000;" parent="7pNdxdmX-lWLdzs3CtEX-1" vertex="1">
          <mxGeometry x="-20" y="-110" width="180" height="240" as="geometry" />
        </mxCell>
        <mxCell id="b4Q8vLsIhjk_OLkRmcc2-36" style="edgeStyle=orthogonalEdgeStyle;shape=connector;rounded=0;orthogonalLoop=1;jettySize=auto;html=1;entryX=1;entryY=0.5;entryDx=0;entryDy=0;labelBackgroundColor=default;strokeColor=default;strokeWidth=2;align=center;verticalAlign=middle;fontFamily=Helvetica;fontSize=11;fontColor=default;endArrow=classic;dashed=1;" parent="7pNdxdmX-lWLdzs3CtEX-1" source="b4Q8vLsIhjk_OLkRmcc2-20" target="b4Q8vLsIhjk_OLkRmcc2-23" edge="1">
          <mxGeometry relative="1" as="geometry" />
        </mxCell>
        <mxCell id="b4Q8vLsIhjk_OLkRmcc2-56" style="edgeStyle=orthogonalEdgeStyle;shape=connector;rounded=0;orthogonalLoop=1;jettySize=auto;html=1;entryX=0;entryY=0.5;entryDx=0;entryDy=0;labelBackgroundColor=default;strokeColor=default;strokeWidth=2;align=center;verticalAlign=middle;fontFamily=Helvetica;fontSize=11;fontColor=default;endArrow=classic;" parent="7pNdxdmX-lWLdzs3CtEX-1" source="b4Q8vLsIhjk_OLkRmcc2-26" target="b4Q8vLsIhjk_OLkRmcc2-12" edge="1">
          <mxGeometry relative="1" as="geometry">
            <Array as="points">
              <mxPoint x="460" y="185" />
              <mxPoint x="460" y="570" />
              <mxPoint x="564" y="570" />
            </Array>
          </mxGeometry>
        </mxCell>
        <mxCell id="b4Q8vLsIhjk_OLkRmcc2-63" value="&lt;font style=&quot;font-size: 16px;&quot;&gt;Film&lt;/font&gt;&lt;br&gt;&lt;font style=&quot;font-size: 16px;&quot;&gt;auswählen&lt;/font&gt;" style="edgeLabel;html=1;align=center;verticalAlign=middle;resizable=0;points=[];fontSize=11;fontFamily=Helvetica;fontColor=default;" parent="b4Q8vLsIhjk_OLkRmcc2-56" vertex="1" connectable="0">
          <mxGeometry x="0.1999" y="-5" relative="1" as="geometry">
            <mxPoint x="5" y="-163" as="offset" />
          </mxGeometry>
        </mxCell>
        <mxCell id="b4Q8vLsIhjk_OLkRmcc2-26" value="&lt;font style=&quot;font-size: 16px;&quot;&gt;FavoritesList.jsx&lt;br&gt;&lt;/font&gt;" style="rounded=0;whiteSpace=wrap;html=1;fillColor=#fa6800;fontColor=#000000;strokeColor=#C73500;" parent="7pNdxdmX-lWLdzs3CtEX-1" vertex="1">
          <mxGeometry x="566.25" y="167.5" width="180" height="50" as="geometry" />
        </mxCell>
        <mxCell id="b4Q8vLsIhjk_OLkRmcc2-27" style="edgeStyle=orthogonalEdgeStyle;shape=connector;rounded=0;orthogonalLoop=1;jettySize=auto;html=1;entryX=0.5;entryY=0;entryDx=0;entryDy=0;labelBackgroundColor=default;strokeColor=default;strokeWidth=2;align=center;verticalAlign=middle;fontFamily=Helvetica;fontSize=11;fontColor=default;endArrow=classic;" parent="7pNdxdmX-lWLdzs3CtEX-1" source="b4Q8vLsIhjk_OLkRmcc2-11" target="b4Q8vLsIhjk_OLkRmcc2-26" edge="1">
          <mxGeometry relative="1" as="geometry" />
        </mxCell>
        <mxCell id="b4Q8vLsIhjk_OLkRmcc2-29" value="&lt;div style=&quot;text-align: left;&quot;&gt;&lt;span style=&quot;background-color: initial; font-size: 16px;&quot;&gt;&lt;u&gt;FavoritesList:&lt;/u&gt;&lt;/span&gt;&lt;/div&gt;&lt;div style=&quot;text-align: left;&quot;&gt;&lt;span style=&quot;background-color: initial; font-size: 16px;&quot;&gt;- poster&lt;/span&gt;&lt;/div&gt;&lt;div style=&quot;text-align: left;&quot;&gt;&lt;span style=&quot;background-color: initial; font-size: 16px;&quot;&gt;-&amp;nbsp;&lt;/span&gt;&lt;span style=&quot;background-color: initial; font-size: 16px;&quot;&gt;title, director&lt;/span&gt;&lt;/div&gt;&lt;div style=&quot;text-align: left;&quot;&gt;&lt;u style=&quot;font-size: 16px; background-color: initial;&quot;&gt;&lt;br&gt;&lt;/u&gt;&lt;/div&gt;&lt;div style=&quot;text-align: left;&quot;&gt;&lt;u style=&quot;font-size: 16px; background-color: initial;&quot;&gt;Features:&lt;/u&gt;&lt;/div&gt;&lt;font style=&quot;&quot;&gt;&lt;div style=&quot;text-align: left;&quot;&gt;&lt;span style=&quot;font-size: 16px; background-color: initial;&quot;&gt;--&amp;gt; Button: remove From FavoritesList&lt;/span&gt;&lt;/div&gt;&lt;/font&gt;" style="rounded=0;whiteSpace=wrap;html=1;fillColor=#f0a30a;fontColor=#000000;strokeColor=#BD7000;spacingLeft=10;" parent="7pNdxdmX-lWLdzs3CtEX-1" vertex="1">
          <mxGeometry x="550" y="277.5" width="212.5" height="160" as="geometry" />
        </mxCell>
        <mxCell id="b4Q8vLsIhjk_OLkRmcc2-30" style="edgeStyle=orthogonalEdgeStyle;shape=connector;rounded=0;orthogonalLoop=1;jettySize=auto;html=1;entryX=0.5;entryY=0;entryDx=0;entryDy=0;labelBackgroundColor=default;strokeColor=default;strokeWidth=2;align=center;verticalAlign=middle;fontFamily=Helvetica;fontSize=11;fontColor=default;endArrow=classic;dashed=1;" parent="7pNdxdmX-lWLdzs3CtEX-1" source="b4Q8vLsIhjk_OLkRmcc2-26" target="b4Q8vLsIhjk_OLkRmcc2-29" edge="1">
          <mxGeometry relative="1" as="geometry" />
        </mxCell>
        <mxCell id="b4Q8vLsIhjk_OLkRmcc2-57" style="edgeStyle=orthogonalEdgeStyle;shape=connector;rounded=0;orthogonalLoop=1;jettySize=auto;html=1;entryX=1;entryY=0.5;entryDx=0;entryDy=0;labelBackgroundColor=default;strokeColor=default;strokeWidth=2;align=center;verticalAlign=middle;fontFamily=Helvetica;fontSize=11;fontColor=default;endArrow=classic;" parent="7pNdxdmX-lWLdzs3CtEX-1" source="b4Q8vLsIhjk_OLkRmcc2-37" target="b4Q8vLsIhjk_OLkRmcc2-11" edge="1">
          <mxGeometry relative="1" as="geometry" />
        </mxCell>
        <mxCell id="b4Q8vLsIhjk_OLkRmcc2-60" style="edgeStyle=orthogonalEdgeStyle;shape=connector;rounded=0;orthogonalLoop=1;jettySize=auto;html=1;entryX=1;entryY=0.5;entryDx=0;entryDy=0;labelBackgroundColor=default;strokeColor=default;strokeWidth=2;align=center;verticalAlign=middle;fontFamily=Helvetica;fontSize=11;fontColor=default;endArrow=classic;" parent="7pNdxdmX-lWLdzs3CtEX-1" source="b4Q8vLsIhjk_OLkRmcc2-37" target="b4Q8vLsIhjk_OLkRmcc2-12" edge="1">
          <mxGeometry relative="1" as="geometry">
            <Array as="points">
              <mxPoint x="1060" y="570" />
            </Array>
          </mxGeometry>
        </mxCell>
        <mxCell id="b4Q8vLsIhjk_OLkRmcc2-61" value="&lt;font style=&quot;font-size: 16px;&quot;&gt;Film auswählen&lt;/font&gt;" style="edgeLabel;html=1;align=center;verticalAlign=middle;resizable=0;points=[];fontSize=11;fontFamily=Helvetica;fontColor=default;" parent="b4Q8vLsIhjk_OLkRmcc2-60" vertex="1" connectable="0">
          <mxGeometry x="-0.2979" y="2" relative="1" as="geometry">
            <mxPoint x="-2" y="-201" as="offset" />
          </mxGeometry>
        </mxCell>
        <mxCell id="b4Q8vLsIhjk_OLkRmcc2-37" value="&lt;font style=&quot;font-size: 16px;&quot;&gt;MovieList.jsx&lt;br&gt;matching movies&lt;br style=&quot;border-color: var(--border-color);&quot;&gt;(poster, title, director)&lt;br&gt;&lt;/font&gt;" style="rounded=0;whiteSpace=wrap;html=1;fillColor=#fa6800;fontColor=#000000;strokeColor=#C73500;" parent="7pNdxdmX-lWLdzs3CtEX-1" vertex="1">
          <mxGeometry x="945" y="30" width="230" height="90" as="geometry" />
        </mxCell>
        <mxCell id="b4Q8vLsIhjk_OLkRmcc2-40" value="&lt;font style=&quot;font-size: 16px;&quot;&gt;MovieList.jsx:&lt;br&gt;ERROR:&lt;br&gt;No matching movies found!&lt;br&gt;&lt;/font&gt;" style="rounded=0;whiteSpace=wrap;html=1;fillColor=#d80073;fontColor=#ffffff;strokeColor=#A50040;" parent="7pNdxdmX-lWLdzs3CtEX-1" vertex="1">
          <mxGeometry x="1240" y="-180" width="240" height="90" as="geometry" />
        </mxCell>
        <mxCell id="b4Q8vLsIhjk_OLkRmcc2-42" style="edgeStyle=orthogonalEdgeStyle;shape=connector;rounded=0;orthogonalLoop=1;jettySize=auto;html=1;entryX=0.5;entryY=0;entryDx=0;entryDy=0;labelBackgroundColor=default;strokeColor=default;strokeWidth=2;align=center;verticalAlign=middle;fontFamily=Helvetica;fontSize=11;fontColor=default;endArrow=classic;" parent="7pNdxdmX-lWLdzs3CtEX-1" source="b4Q8vLsIhjk_OLkRmcc2-41" target="b4Q8vLsIhjk_OLkRmcc2-37" edge="1">
          <mxGeometry relative="1" as="geometry" />
        </mxCell>
        <mxCell id="b4Q8vLsIhjk_OLkRmcc2-43" value="&lt;font style=&quot;font-size: 15px;&quot;&gt;Ja&lt;/font&gt;" style="edgeLabel;html=1;align=center;verticalAlign=middle;resizable=0;points=[];fontSize=11;fontFamily=Helvetica;fontColor=default;" parent="b4Q8vLsIhjk_OLkRmcc2-42" vertex="1" connectable="0">
          <mxGeometry x="0.0845" y="-2" relative="1" as="geometry">
            <mxPoint x="2" y="-6" as="offset" />
          </mxGeometry>
        </mxCell>
        <mxCell id="b4Q8vLsIhjk_OLkRmcc2-44" style="edgeStyle=orthogonalEdgeStyle;shape=connector;rounded=0;orthogonalLoop=1;jettySize=auto;html=1;entryX=0;entryY=0.5;entryDx=0;entryDy=0;labelBackgroundColor=default;strokeColor=default;strokeWidth=2;align=center;verticalAlign=middle;fontFamily=Helvetica;fontSize=11;fontColor=default;endArrow=classic;" parent="7pNdxdmX-lWLdzs3CtEX-1" source="b4Q8vLsIhjk_OLkRmcc2-41" target="b4Q8vLsIhjk_OLkRmcc2-40" edge="1">
          <mxGeometry relative="1" as="geometry" />
        </mxCell>
        <mxCell id="b4Q8vLsIhjk_OLkRmcc2-45" value="&lt;font style=&quot;font-size: 15px;&quot;&gt;Nein&lt;/font&gt;" style="edgeLabel;html=1;align=center;verticalAlign=middle;resizable=0;points=[];fontSize=11;fontFamily=Helvetica;fontColor=default;" parent="b4Q8vLsIhjk_OLkRmcc2-44" vertex="1" connectable="0">
          <mxGeometry x="0.3074" y="-2" relative="1" as="geometry">
            <mxPoint x="-19" y="-2" as="offset" />
          </mxGeometry>
        </mxCell>
        <mxCell id="b4Q8vLsIhjk_OLkRmcc2-41" value="&lt;font style=&quot;font-size: 16px;&quot;&gt;passender Film gefunden?&lt;/font&gt;" style="rhombus;whiteSpace=wrap;html=1;fontFamily=Helvetica;fontSize=11;fontColor=#000000;fillColor=#e3c800;strokeColor=#B09500;" parent="7pNdxdmX-lWLdzs3CtEX-1" vertex="1">
          <mxGeometry x="970" y="-225" width="180" height="180" as="geometry" />
        </mxCell>
        <mxCell id="b4Q8vLsIhjk_OLkRmcc2-49" style="edgeStyle=orthogonalEdgeStyle;shape=connector;rounded=0;orthogonalLoop=1;jettySize=auto;html=1;entryX=1;entryY=0.5;entryDx=0;entryDy=0;labelBackgroundColor=default;strokeColor=default;strokeWidth=2;align=center;verticalAlign=middle;fontFamily=Helvetica;fontSize=11;fontColor=default;endArrow=classic;" parent="7pNdxdmX-lWLdzs3CtEX-1" source="b4Q8vLsIhjk_OLkRmcc2-47" target="b4Q8vLsIhjk_OLkRmcc2-37" edge="1">
          <mxGeometry relative="1" as="geometry" />
        </mxCell>
        <mxCell id="b4Q8vLsIhjk_OLkRmcc2-47" value="&lt;font style=&quot;font-size: 16px;&quot;&gt;Button: Click to see all movies&lt;br&gt;&lt;/font&gt;" style="rounded=0;whiteSpace=wrap;html=1;fillColor=#008a00;fontColor=#ffffff;strokeColor=#005700;" parent="7pNdxdmX-lWLdzs3CtEX-1" vertex="1">
          <mxGeometry x="1261.25" y="42.5" width="197.5" height="65" as="geometry" />
        </mxCell>
        <mxCell id="b4Q8vLsIhjk_OLkRmcc2-48" style="edgeStyle=orthogonalEdgeStyle;shape=connector;rounded=0;orthogonalLoop=1;jettySize=auto;html=1;entryX=0.5;entryY=0;entryDx=0;entryDy=0;labelBackgroundColor=default;strokeColor=default;strokeWidth=2;align=center;verticalAlign=middle;fontFamily=Helvetica;fontSize=11;fontColor=default;endArrow=classic;" parent="7pNdxdmX-lWLdzs3CtEX-1" source="b4Q8vLsIhjk_OLkRmcc2-40" target="b4Q8vLsIhjk_OLkRmcc2-47" edge="1">
          <mxGeometry relative="1" as="geometry" />
        </mxCell>
        <mxCell id="b4Q8vLsIhjk_OLkRmcc2-55" value="&lt;font style=&quot;font-size: 16px;&quot;&gt;Ende&lt;/font&gt;" style="rounded=1;whiteSpace=wrap;html=1;fillColor=#1ba1e2;fontColor=#ffffff;strokeColor=#006EAF;" parent="7pNdxdmX-lWLdzs3CtEX-1" vertex="1">
          <mxGeometry x="890" y="702.5" width="120" height="40" as="geometry" />
        </mxCell>
        <mxCell id="b4Q8vLsIhjk_OLkRmcc2-64" style="edgeStyle=orthogonalEdgeStyle;shape=connector;rounded=0;orthogonalLoop=1;jettySize=auto;html=1;entryX=0;entryY=0.5;entryDx=0;entryDy=0;labelBackgroundColor=default;strokeColor=default;strokeWidth=2;align=center;verticalAlign=middle;fontFamily=Helvetica;fontSize=11;fontColor=default;endArrow=classic;" parent="7pNdxdmX-lWLdzs3CtEX-1" source="b4Q8vLsIhjk_OLkRmcc2-13" target="b4Q8vLsIhjk_OLkRmcc2-55" edge="1">
          <mxGeometry relative="1" as="geometry" />
        </mxCell>
        <mxCell id="7pNdxdmX-lWLdzs3CtEX-9" style="edgeStyle=orthogonalEdgeStyle;rounded=0;orthogonalLoop=1;jettySize=auto;html=1;exitX=0.5;exitY=0;exitDx=0;exitDy=0;entryX=1;entryY=0.25;entryDx=0;entryDy=0;strokeWidth=5;dashed=1;dashPattern=1 1;fillColor=#76608a;strokeColor=#432D57;" edge="1" parent="7pNdxdmX-lWLdzs3CtEX-1" source="b4Q8vLsIhjk_OLkRmcc2-67" target="b4Q8vLsIhjk_OLkRmcc2-26">
          <mxGeometry relative="1" as="geometry" />
        </mxCell>
        <mxCell id="b4Q8vLsIhjk_OLkRmcc2-67" value="Datenbank moviesDB" style="swimlane;whiteSpace=wrap;html=1;fillColor=#76608a;strokeColor=#432D57;fontColor=#ffffff;" parent="7pNdxdmX-lWLdzs3CtEX-1" vertex="1">
          <mxGeometry x="840" y="230" width="200" height="160" as="geometry" />
        </mxCell>
        <mxCell id="b4Q8vLsIhjk_OLkRmcc2-68" value="&lt;font style=&quot;font-size: 16px;&quot;&gt;&lt;b&gt;collection&lt;/b&gt;: favMovies&lt;/font&gt;" style="text;html=1;strokeColor=none;fillColor=none;align=center;verticalAlign=middle;whiteSpace=wrap;rounded=0;" parent="b4Q8vLsIhjk_OLkRmcc2-67" vertex="1">
          <mxGeometry x="20" y="40" width="160" height="30" as="geometry" />
        </mxCell>
        <mxCell id="b4Q8vLsIhjk_OLkRmcc2-69" value="&lt;span style=&quot;font-size: 16px;&quot;&gt;&lt;b&gt;documents&lt;/b&gt;:&lt;br&gt;fav#1&lt;span style=&quot;white-space: pre;&quot;&gt;&#x9;&lt;/span&gt;fav#2&lt;br&gt;&lt;span style=&quot;white-space: pre;&quot;&gt;&#x9;&lt;/span&gt;fav#3&lt;span style=&quot;white-space: pre;&quot;&gt;&#x9;&lt;/span&gt;fav#4&lt;br&gt;...&lt;br&gt;&lt;/span&gt;" style="text;html=1;strokeColor=none;fillColor=none;align=left;verticalAlign=middle;whiteSpace=wrap;rounded=0;" parent="b4Q8vLsIhjk_OLkRmcc2-67" vertex="1">
          <mxGeometry x="20" y="70" width="160" height="90" as="geometry" />
        </mxCell>
        <mxCell id="7pNdxdmX-lWLdzs3CtEX-2" value="&lt;div style=&quot;border-color: var(--border-color); text-align: left;&quot;&gt;&lt;br&gt;&lt;/div&gt;" style="text;html=1;strokeColor=none;fillColor=none;align=center;verticalAlign=middle;whiteSpace=wrap;rounded=0;" vertex="1" parent="7pNdxdmX-lWLdzs3CtEX-1">
          <mxGeometry x="50" y="851" width="60" height="30" as="geometry" />
        </mxCell>
        <mxCell id="7pNdxdmX-lWLdzs3CtEX-7" value="" style="group" vertex="1" connectable="0" parent="7pNdxdmX-lWLdzs3CtEX-1">
          <mxGeometry x="-10" y="660" width="510" height="152" as="geometry" />
        </mxCell>
        <mxCell id="b4Q8vLsIhjk_OLkRmcc2-14" value="&lt;div style=&quot;text-align: left;&quot;&gt;&lt;br&gt;&lt;/div&gt;" style="rounded=0;whiteSpace=wrap;html=1;fillColor=#f0a30a;fontColor=#000000;strokeColor=#BD7000;" parent="7pNdxdmX-lWLdzs3CtEX-7" vertex="1">
          <mxGeometry y="2" width="510" height="150" as="geometry" />
        </mxCell>
        <mxCell id="7pNdxdmX-lWLdzs3CtEX-5" value="&lt;div style=&quot;border-color: var(--border-color); text-align: left; font-size: 16px;&quot;&gt;&lt;u style=&quot;border-color: var(--border-color);&quot;&gt;Details&lt;/u&gt;:&lt;/div&gt;&lt;div style=&quot;border-color: var(--border-color); text-align: left;&quot;&gt;-&amp;nbsp;&lt;span style=&quot;border-color: var(--border-color); background-color: initial; font-size: 16px;&quot;&gt;title, year, director&lt;/span&gt;&lt;/div&gt;&lt;div style=&quot;border-color: var(--border-color); text-align: left;&quot;&gt;&lt;span style=&quot;border-color: var(--border-color); font-size: 16px;&quot;&gt;- Poster&lt;/span&gt;&lt;/div&gt;&lt;div style=&quot;border-color: var(--border-color); text-align: left;&quot;&gt;&lt;span style=&quot;border-color: var(--border-color); font-size: 16px;&quot;&gt;- imdb-rating, runtime&lt;/span&gt;&lt;/div&gt;&lt;div style=&quot;border-color: var(--border-color); text-align: left;&quot;&gt;&lt;span style=&quot;border-color: var(--border-color); font-size: 16px; background-color: initial;&quot;&gt;- genre&lt;/span&gt;&lt;/div&gt;&lt;div style=&quot;border-color: var(--border-color); text-align: left;&quot;&gt;&lt;span style=&quot;border-color: var(--border-color); font-size: 16px; background-color: initial;&quot;&gt;- plot, actors&lt;/span&gt;&lt;/div&gt;" style="text;html=1;strokeColor=none;fillColor=none;align=center;verticalAlign=middle;whiteSpace=wrap;rounded=0;" vertex="1" parent="7pNdxdmX-lWLdzs3CtEX-7">
          <mxGeometry x="11" y="11" width="180" height="131" as="geometry" />
        </mxCell>
        <mxCell id="7pNdxdmX-lWLdzs3CtEX-6" value="&lt;div style=&quot;border-color: var(--border-color); text-align: left;&quot;&gt;&lt;u style=&quot;border-color: var(--border-color); font-size: 16px; background-color: initial;&quot;&gt;Features:&lt;/u&gt;&lt;br style=&quot;border-color: var(--border-color);&quot;&gt;&lt;/div&gt;&lt;font style=&quot;border-color: var(--border-color); font-size: 16px;&quot;&gt;&lt;div style=&quot;border-color: var(--border-color); text-align: left;&quot;&gt;--&amp;gt; Button: add To FavoritesList&lt;/div&gt;&lt;div style=&quot;border-color: var(--border-color); text-align: left;&quot;&gt;&lt;span style=&quot;border-color: var(--border-color); background-color: initial;&quot;&gt;--&amp;gt; Button: remove From FavoritesList&lt;/span&gt;&lt;/div&gt;&lt;div style=&quot;border-color: var(--border-color); text-align: left;&quot;&gt;&lt;span style=&quot;border-color: var(--border-color); font-size: 16px; background-color: initial;&quot;&gt;--&amp;gt;&amp;nbsp;&lt;i style=&quot;border-color: var(--border-color);&quot;&gt;Button:&lt;/i&gt;&amp;nbsp;&lt;i style=&quot;border-color: var(--border-color);&quot;&gt;editMovie&lt;/i&gt;&lt;/span&gt;&lt;/div&gt;&lt;/font&gt;" style="text;html=1;strokeColor=none;fillColor=none;align=center;verticalAlign=middle;whiteSpace=wrap;rounded=0;" vertex="1" parent="7pNdxdmX-lWLdzs3CtEX-7">
          <mxGeometry x="210" width="300" height="100" as="geometry" />
        </mxCell>
        <mxCell id="b4Q8vLsIhjk_OLkRmcc2-31" value="&lt;font style=&quot;font-size: 16px;&quot;&gt;Eingabe ins Suchfeld &amp;amp; Click auf &quot;submit&quot;&lt;br&gt;&lt;/font&gt;" style="rounded=0;whiteSpace=wrap;html=1;fillColor=#008a00;fontColor=#ffffff;strokeColor=#005700;" parent="1" vertex="1">
          <mxGeometry x="2240" y="132.5" width="197.5" height="65" as="geometry" />
        </mxCell>
        <mxCell id="b4Q8vLsIhjk_OLkRmcc2-76" style="edgeStyle=orthogonalEdgeStyle;shape=connector;rounded=0;orthogonalLoop=1;jettySize=auto;html=1;entryX=0;entryY=0.5;entryDx=0;entryDy=0;labelBackgroundColor=default;strokeColor=default;strokeWidth=2;align=center;verticalAlign=middle;fontFamily=Helvetica;fontSize=11;fontColor=default;endArrow=classic;" parent="1" source="b4Q8vLsIhjk_OLkRmcc2-9" target="b4Q8vLsIhjk_OLkRmcc2-31" edge="1">
          <mxGeometry relative="1" as="geometry" />
        </mxCell>
        <mxCell id="b4Q8vLsIhjk_OLkRmcc2-50" style="edgeStyle=orthogonalEdgeStyle;shape=connector;rounded=0;orthogonalLoop=1;jettySize=auto;html=1;entryX=0.5;entryY=0;entryDx=0;entryDy=0;labelBackgroundColor=default;strokeColor=default;strokeWidth=2;align=center;verticalAlign=middle;fontFamily=Helvetica;fontSize=11;fontColor=default;endArrow=classic;" parent="1" source="b4Q8vLsIhjk_OLkRmcc2-40" target="b4Q8vLsIhjk_OLkRmcc2-31" edge="1">
          <mxGeometry relative="1" as="geometry">
            <Array as="points">
              <mxPoint x="3060" y="40" />
              <mxPoint x="2339" y="40" />
            </Array>
          </mxGeometry>
        </mxCell>
        <mxCell id="b4Q8vLsIhjk_OLkRmcc2-51" value="&lt;font style=&quot;font-size: 16px;&quot;&gt;neue Suchanfrage&lt;/font&gt;" style="edgeLabel;html=1;align=center;verticalAlign=middle;resizable=0;points=[];fontSize=11;fontFamily=Helvetica;fontColor=default;" parent="b4Q8vLsIhjk_OLkRmcc2-50" vertex="1" connectable="0">
          <mxGeometry x="-0.0757" y="-3" relative="1" as="geometry">
            <mxPoint x="-23" as="offset" />
          </mxGeometry>
        </mxCell>
        <mxCell id="b4Q8vLsIhjk_OLkRmcc2-46" style="edgeStyle=orthogonalEdgeStyle;shape=connector;rounded=0;orthogonalLoop=1;jettySize=auto;html=1;entryX=0;entryY=0.5;entryDx=0;entryDy=0;labelBackgroundColor=default;strokeColor=default;strokeWidth=2;align=center;verticalAlign=middle;fontFamily=Helvetica;fontSize=11;fontColor=default;endArrow=classic;" parent="1" source="b4Q8vLsIhjk_OLkRmcc2-31" target="b4Q8vLsIhjk_OLkRmcc2-41" edge="1">
          <mxGeometry relative="1" as="geometry" />
        </mxCell>
      </root>
    </mxGraphModel>
  </diagram>
</mxfile>
